<svg width="189" height="52" viewBox="0 0 189 52" fill="none" xmlns="http://www.w3.org/2000/svg">
<path d="M84.2851 22.7998L107.88 0H84.718L72.7188 11.595L84.2851 22.7998Z" fill="white"/>
<path d="M84.2851 29.0156L107.88 51.8155H84.718L72.7188 40.2204L84.2851 29.0156Z" fill="white"/>
<path d="M58.0381 27.5078L32.9141 51.8127H56.0761L81.2292 27.5078H58.0381Z" fill="white"/>
<path d="M81.2292 24.305L56.0761 0H32.9141L58.0381 24.305H81.2292Z" fill="white"/>
<path d="M121.264 29.7933C119.505 34.6431 115.438 37.9879 109.495 37.9879C100.554 37.9879 96.3711 31.3263 96.3711 25.5845C96.3711 20.2329 100.41 13.5156 109.294 13.5156C115.293 13.5156 119.678 16.9161 121.264 21.8774H114.832C113.707 19.7591 111.716 18.7279 109.207 18.7279C104.65 18.7279 102.083 21.9611 102.083 25.6402C102.083 29.5703 104.822 32.7199 109.207 32.7199C110.188 32.7199 113.246 32.5527 114.832 29.7375H121.264V29.7933Z" fill="white"/>
<path d="M148.956 25.811C148.956 32.5004 143.591 37.9913 136.351 37.9913C129.111 37.9913 123.746 32.4725 123.746 25.811C123.746 19.0937 129.053 13.547 136.351 13.547C143.649 13.5191 148.956 19.0937 148.956 25.811ZM129.428 25.811C129.428 29.5459 132.14 32.7791 136.351 32.7791C140.562 32.7791 143.245 29.5459 143.245 25.811C143.245 22.076 140.591 18.7592 136.351 18.7592C132.082 18.7592 129.428 22.076 129.428 25.811Z" fill="white"/>
<path d="M152.848 13.8516H158.097V16.7224H158.184C159.857 14.4369 162.569 13.8516 164.357 13.8516C166.751 13.8516 169.664 14.8549 171.308 17.4192C172.693 15.6075 175.03 13.8516 178.895 13.8516C184.692 13.8516 188.586 17.6701 188.586 24.1366V37.5712H182.875V25.3908C182.875 23.3282 182.615 19.0916 178.202 19.0916C173.818 19.0916 173.558 23.3282 173.558 25.3908V37.5991H167.876V25.3908C167.876 23.3282 167.616 19.0916 163.203 19.0916C158.819 19.0916 158.559 23.3282 158.559 25.3908V37.5991H152.848V13.8516Z" fill="white"/>
<path d="M31.2387 4.62614H24.1429C23.5372 4.62614 23.0469 4.1523 23.0469 3.56697C23.0469 2.98165 23.5372 2.50781 24.1429 2.50781H31.2387C31.8445 2.50781 32.3349 2.98165 32.3349 3.56697C32.3349 4.1523 31.8445 4.62614 31.2387 4.62614Z" fill="white"/>
<path d="M37.0375 10.2277H18.3461C17.7404 10.2277 17.25 9.75381 17.25 9.16852C17.25 8.58318 17.7404 8.10938 18.3461 8.10938H37.0375C37.6432 8.10938 38.1336 8.58318 38.1336 9.16852C38.1336 9.75381 37.6432 10.2277 37.0375 10.2277Z" fill="white"/>
<path d="M48.6325 21.4074H6.72107C6.11536 21.4074 5.625 20.9335 5.625 20.3482C5.625 19.7629 6.11536 19.2891 6.72107 19.2891H48.6325C49.2382 19.2891 49.7286 19.7629 49.7286 20.3482C49.7286 20.9335 49.2382 21.4074 48.6325 21.4074Z" fill="white"/>
<path d="M42.9498 15.8292H12.4321C11.8263 15.8292 11.3359 15.3554 11.3359 14.7701C11.3359 14.1848 11.8263 13.7109 12.4321 13.7109H42.9209C43.5267 13.7109 44.017 14.1848 44.017 14.7701C44.017 15.3554 43.5267 15.8292 42.9498 15.8292Z" fill="white"/>
<path d="M54.2858 27.009H1.0961C0.49036 27.009 0 26.5351 0 25.9498C0 25.3645 0.49036 24.8906 1.0961 24.8906H54.2858C54.8915 24.8906 55.3819 25.3645 55.3819 25.9498C55.3819 26.5351 54.8915 27.009 54.2858 27.009Z" fill="white"/>
<path d="M31.2387 49.3605H24.1429C23.5372 49.3605 23.0469 48.8867 23.0469 48.3013C23.0469 47.716 23.5372 47.2422 24.1429 47.2422H31.2387C31.8445 47.2422 32.3349 47.716 32.3349 48.3013C32.3349 48.8867 31.8445 49.3605 31.2387 49.3605Z" fill="white"/>
<path d="M37.0375 43.759H18.3461C17.7404 43.759 17.25 43.2851 17.25 42.6998C17.25 42.1145 17.7404 41.6406 18.3461 41.6406H37.0375C37.6432 41.6406 38.1336 42.1145 38.1336 42.6998C38.1336 43.2851 37.6432 43.759 37.0375 43.759Z" fill="white"/>
<path d="M48.6325 32.587H6.72107C6.11536 32.587 5.625 32.1132 5.625 31.5279C5.625 30.9426 6.11536 30.4688 6.72107 30.4688H48.6325C49.2382 30.4688 49.7286 30.9426 49.7286 31.5279C49.7286 32.1132 49.2382 32.587 48.6325 32.587Z" fill="white"/>
<path d="M42.9498 38.1887H12.4321C11.8263 38.1887 11.3359 37.7148 11.3359 37.1295C11.3359 36.5442 11.8263 36.0703 12.4321 36.0703H42.9209C43.5267 36.0703 44.017 36.5442 44.017 37.1295C44.017 37.7148 43.5267 38.1887 42.9498 38.1887Z" fill="white"/>
</svg>
