<svg width="1024" height="137" viewBox="0 0 1024 137" fill="none" xmlns="http://www.w3.org/2000/svg">
<path d="M798.271 4.11898C773.986 3.31243 747.725 17.2923 735.272 43.6021C727.545 58.451 721.649 74.986 717.729 91.2139C717.374 92.6496 717.053 94.0839 716.746 95.5112C716.351 97.818 716.322 100.779 716.532 103.804C717.492 116.58 728.838 132.024 747.534 132.903H760.174H760.313H769.714C793.992 133.71 820.24 119.729 832.701 93.4193C840.428 78.5626 846.324 62.0147 850.244 45.7952C850.59 44.3512 850.928 42.9168 851.227 41.4973C851.63 39.1828 851.659 36.2295 851.441 33.2053C850.481 20.4211 839.135 4.99006 820.439 4.11898H807.647H798.271ZM381.875 5.30365L391.806 131.655H397.981H410.432H411.717C411.685 131.649 411.636 131.655 411.604 131.655C411.741 131.655 411.878 131.655 412.007 131.655H412.776C416.736 131.533 420.274 129.465 422.379 126.312H422.392L503.577 5.30365H482.581L424.421 92.1592L417.603 5.30365H381.875ZM518.082 5.30365L471.491 131.655H507.256L553.835 5.30365H518.082ZM602.001 5.30365C569.876 5.69725 555.679 41.4353 573.23 64.3331C582.134 75.2054 594.848 86.4798 602.026 98.3845C606.575 104.821 601.71 115.558 593.016 115.663H575.36H536.292L530.42 131.655H602.241C630.389 131.571 649.435 98.4264 630.546 73.0039C621.827 60.1229 607.999 51.3327 599.821 38.7505C594.957 32.1851 599.847 21.4089 608.63 21.296H626.841H661.422L667.307 5.30365H602.001ZM692.058 5.30365L645.492 131.655H681.245L727.824 5.30365H692.058ZM885.102 5.30365L838.321 131.655H856.746L888.983 44.5725L889.147 46.1353L918.107 124.346C919.841 128.459 923.826 131.405 928.504 131.655H945.354L992.147 5.30365H973.722L942.102 90.6971L908.441 5.30365H903.526H885.102ZM806.437 17.1877C813.18 17.7039 818.536 23.3763 818.536 30.2565C818.587 31.9503 818.295 33.6214 817.666 35.1461L794.037 99.4937C789.27 111.842 778.189 119.409 765.026 119.796H761.535C754.792 119.28 749.437 113.608 749.437 106.727C749.385 105.034 749.682 103.342 750.319 101.826L773.936 37.4774C778.711 25.1287 789.793 17.5794 802.972 17.2H806.437V17.1877Z" fill="white"/>
<path d="M50.4583 5.3072L3.86719 131.659H41.8382L64.1193 71.2304H109.324L87.043 131.659H116.709C121.726 131.659 126.036 128.492 127.787 124.072C127.806 124.007 127.825 123.988 127.851 123.956L171.594 5.30397H133.623L115.69 53.9495H70.4849L88.4182 5.30397L50.4583 5.3072ZM195.726 5.3072L149.148 131.659H187.106L233.685 5.3072H232.588H196.835H195.726ZM259.52 5.3072L212.941 131.659H250.9L268.757 83.2023L278.247 75.9181L303.426 124.74L303.439 124.675C303.472 124.74 303.484 124.759 303.504 124.791C305.569 129.075 310.102 131.898 315.111 131.559C315.022 131.559 314.925 131.624 314.821 131.624H347.058L306.957 53.8669L370.208 5.29688H341.84L279.963 52.8081L297.48 5.29688H259.522L259.52 5.3072Z" fill="white"/>
<path d="M1020.13 16.475C1020.13 23.5166 1014.61 29.0334 1007.42 29.0334C1000.31 29.0334 994.637 23.5166 994.637 16.475C994.637 9.58707 1000.31 4.0625 1007.42 4.0625C1014.61 4.0625 1020.13 9.58707 1020.13 16.475ZM997.814 16.475C997.814 22.0003 1001.9 26.3879 1007.49 26.3879C1012.95 26.3879 1016.95 22.0003 1016.95 16.548C1016.95 11.0311 1012.95 6.56282 1007.42 6.56282C1001.9 6.56282 997.814 11.0311 997.814 16.475ZM1005.45 22.9843H1002.58V10.5711C1003.71 10.3452 1005.3 10.1904 1007.35 10.1904C1009.69 10.1904 1010.75 10.5711 1011.65 11.1015C1012.34 11.6306 1012.86 12.6178 1012.86 13.8276C1012.86 15.191 1011.81 16.2473 1010.29 16.6989V16.8538C1011.5 17.3055 1012.19 18.2166 1012.57 19.8781C1012.95 21.7738 1013.17 22.5319 1013.47 22.9836H1010.37C1009.99 22.5319 1009.77 21.3944 1009.39 19.9587C1009.16 18.596 1008.4 17.9907 1006.82 17.9907H1005.45V22.9843ZM1005.52 15.9427H1006.89C1008.48 15.9427 1009.77 15.4201 1009.77 14.1283C1009.77 12.9991 1008.94 12.241 1007.11 12.241C1006.36 12.241 1005.83 12.3119 1005.52 12.3894V15.9427Z" fill="white"/>
</svg>
